<svg xmlns="http://www.w3.org/2000/svg" xmlns:xlink="http://www.w3.org/1999/xlink" style="display:none">
<symbol fill="none" viewBox="0 0 18 18" id="mail"><path d="m1.5 5.25 6.124 4.287c.496.347.744.52 1.013.587.238.06.488.06.726 0 .27-.067.517-.24 1.013-.587L16.5 5.25M5.1 15h7.8c1.26 0 1.89 0 2.371-.245a2.25 2.25 0 0 0 .984-.984c.245-.48.245-1.11.245-2.371V6.6c0-1.26 0-1.89-.245-2.371a2.25 2.25 0 0 0-.983-.984C14.79 3 14.16 3 12.9 3H5.1c-1.26 0-1.89 0-2.371.245a2.25 2.25 0 0 0-.984.984C1.5 4.709 1.5 5.339 1.5 6.6v4.8c0 1.26 0 1.89.245 2.371.216.424.56.768.984.984C3.209 15 3.839 15 5.1 15Z" stroke="currentColor" stroke-width="1.3" stroke-linecap="round" stroke-linejoin="round" /></symbol>
<symbol fill="none" viewBox="0 0 20 20" id="calendar"><path d="M17.5 8.335h-15m10.833-6.667v3.333M6.667 1.668v3.333M6.5 18.335h7c1.4 0 2.1 0 2.635-.273.47-.24.853-.622 1.092-1.092.273-.535.273-1.235.273-2.635v-7c0-1.4 0-2.1-.273-2.635a2.5 2.5 0 0 0-1.092-1.093c-.535-.272-1.235-.272-2.635-.272h-7c-1.4 0-2.1 0-2.635.272A2.5 2.5 0 0 0 2.772 4.7C2.5 5.234 2.5 5.934 2.5 7.335v7c0 1.4 0 2.1.272 2.635.24.47.623.853 1.093 1.092.535.273 1.235.273 2.635.273Z" stroke="currentColor" stroke-width="1.3" stroke-linecap="round" stroke-linejoin="round" /></symbol>
<symbol fill="none" viewBox="0 0 18 18" id="message-2"><path d="M6 7.125h3M6 9.75h5.25m-2.25 6a6.75 6.75 0 1 0-6.256-4.212c.06.15.09.225.104.286a.68.68 0 0 1 .019.164c0 .062-.012.13-.034.265l-.445 2.668c-.046.28-.07.42-.026.52a.375.375 0 0 0 .196.197c.101.044.241.02.52-.026l2.669-.445c.135-.022.203-.034.265-.034a.68.68 0 0 1 .164.019c.06.013.136.043.286.104A6.73 6.73 0 0 0 9 15.75Z" stroke="currentColor" stroke-width="1.3" stroke-linecap="round" stroke-linejoin="round" /></symbol>
<symbol fill="none" viewBox="0 0 18 18" id="feedback"><path d="M15 9.375V5.1c0-1.26 0-1.89-.245-2.371a2.25 2.25 0 0 0-.984-.984c-.48-.245-1.11-.245-2.371-.245H6.6c-1.26 0-1.89 0-2.371.245a2.25 2.25 0 0 0-.984.984C3 3.209 3 3.839 3 5.1v7.8c0 1.26 0 1.89.245 2.371.216.424.56.768.984.984.48.245 1.11.245 2.371.245H9m1.5-8.25H6m1.5 3H6m6-6H6m4.875 9 1.5 1.5 3.375-3.375" stroke="currentColor" stroke-width="1.3" stroke-linecap="round" stroke-linejoin="round" /></symbol>
<symbol fill="none" viewBox="0 0 18 18" id="clipboard"><path d="M12 3c.697 0 1.046 0 1.332.077a2.25 2.25 0 0 1 1.591 1.59C15 4.955 15 5.304 15 6v6.9c0 1.26 0 1.89-.245 2.371a2.25 2.25 0 0 1-.984.984c-.48.245-1.11.245-2.371.245H6.6c-1.26 0-1.89 0-2.371-.245a2.25 2.25 0 0 1-.984-.983C3 14.79 3 14.16 3 12.9V6c0-.697 0-1.046.077-1.332a2.25 2.25 0 0 1 1.59-1.591C4.955 3 5.304 3 6 3m1.2 1.5h3.6c.42 0 .63 0 .79-.082a.75.75 0 0 0 .328-.328C12 3.93 12 3.72 12 3.3v-.6c0-.42 0-.63-.082-.79a.75.75 0 0 0-.327-.328c-.16-.082-.37-.082-.791-.082H7.2c-.42 0-.63 0-.79.082a.75.75 0 0 0-.328.328C6 2.07 6 2.28 6 2.7v.6c0 .42 0 .63.082.79a.75.75 0 0 0 .328.328c.16.082.37.082.79.082Z" stroke="currentColor" stroke-width="1.3" stroke-linecap="round" stroke-linejoin="round" /></symbol>
<symbol fill="none" viewBox="0 0 18 18" id="thumbs-up"><path d="m5.25 8.25 3-6.75a2.25 2.25 0 0 1 2.25 2.25v3h4.245a1.5 1.5 0 0 1 1.5 1.725l-1.035 6.75a1.5 1.5 0 0 1-1.5 1.275H5.25m0-8.25v8.25m0-8.25H3a1.5 1.5 0 0 0-1.5 1.5V15A1.5 1.5 0 0 0 3 16.5h2.25" stroke="currentColor" stroke-width="1.3" stroke-linecap="round" stroke-linejoin="round" /></symbol>
<symbol fill="none" viewBox="0 0 18 18" id="clip"><path d="m15.866 8.173-6.761 6.762a3.938 3.938 0 0 1-5.569-5.569l6.762-6.761a2.625 2.625 0 0 1 3.712 3.712l-6.496 6.497a1.312 1.312 0 1 1-1.857-1.857l5.701-5.7" stroke="currentColor" stroke-width="1.3" stroke-linecap="round" stroke-linejoin="round" /></symbol>
<symbol fill="none" viewBox="0 0 20 20" id="home-20"><path stroke="currentColor" stroke-linecap="round" stroke-linejoin="round" stroke-width="1.3" d="M7.5 17.502v-6.167c0-.467 0-.7.09-.878a.833.833 0 0 1 .365-.365c.178-.09.412-.09.878-.09h2.334c.466 0 .7 0 .878.09.157.08.284.208.364.365.091.178.091.411.091.878v6.167M9.181 2.305 3.53 6.7c-.377.294-.566.44-.702.625-.12.163-.21.346-.265.541-.062.22-.062.46-.062.939v6.029c0 .933 0 1.4.182 1.757.16.313.414.568.728.728.357.182.823.182 1.757.182h9.666c.934 0 1.4 0 1.757-.182.314-.16.569-.415.728-.728.182-.357.182-.824.182-1.757v-6.03c0-.478 0-.717-.062-.938a1.667 1.667 0 0 0-.265-.541c-.136-.184-.325-.331-.702-.625L10.82 2.304c-.293-.228-.44-.342-.601-.385a.833.833 0 0 0-.436 0c-.161.043-.308.157-.6.385Z" /></symbol>
<symbol fill="none" viewBox="0 0 20 20" id="graph-20"><path stroke="currentColor" stroke-linecap="round" stroke-linejoin="round" stroke-width="1.3" d="M17.5 17.5H3.833c-.466 0-.7 0-.878-.09a.833.833 0 0 1-.364-.365c-.091-.178-.091-.412-.091-.878V2.5m14.167 4.167L13.4 10.152c-.124.132-.186.198-.26.232a.416.416 0 0 1-.211.037c-.082-.008-.162-.05-.323-.133l-2.714-1.41c-.16-.083-.241-.124-.323-.132a.416.416 0 0 0-.21.036c-.075.034-.137.1-.26.232L5.832 12.5" /></symbol>
<symbol fill="none" viewBox="0 0 20 20" id="calendar-20"><path stroke="currentColor" stroke-linecap="round" stroke-linejoin="round" stroke-width="1.3" d="M17.5 8.335h-15m10.833-6.667v3.333M6.667 1.668v3.333M6.5 18.335h7c1.4 0 2.1 0 2.635-.273a2.5 2.5 0 0 0 1.092-1.092c.273-.535.273-1.235.273-2.635v-7c0-1.4 0-2.1-.273-2.635a2.5 2.5 0 0 0-1.092-1.093c-.535-.272-1.235-.272-2.635-.272h-7c-1.4 0-2.1 0-2.635.272A2.5 2.5 0 0 0 2.772 4.7C2.5 5.234 2.5 5.934 2.5 7.335v7c0 1.4 0 2.1.272 2.635.24.47.623.853 1.093 1.092.535.273 1.235.273 2.635.273Z" /></symbol>
<symbol fill="none" viewBox="0 0 20 20" id="edit-2-20"><path stroke="currentColor" stroke-linecap="round" stroke-linejoin="round" stroke-width="1.3" d="M6.08 5.213h5.745m-5.746 3.83h3.83m-.77 9.475 1.26-.248c.679-.135 1.018-.202 1.335-.325.281-.11.549-.253.796-.425.28-.195.524-.44 1.014-.93l4.93-4.93a1.685 1.685 0 0 0-2.383-2.383l-5.015 5.015c-.459.459-.688.688-.873.948-.165.231-.303.48-.413.74-.123.295-.198.611-.346 1.243l-.305 1.295Zm-3.827.101v0a3.064 3.064 0 0 1-3.064-3.065v0V4.446v0A3.064 3.064 0 0 1 5.312 1.38v0h9.194v0a3.064 3.064 0 0 1 3.064 3.065v.766" /></symbol>
<symbol fill="none" viewBox="0 0 20 20" id="business-folder"><path d="M17.659 6.972a2.97 2.97 0 0 0-2.754-1.857h-3.047c-.309 0-.463 0-.606-.049a.894.894 0 0 1-.036-.013c-.14-.054-.259-.153-.495-.352-1.104-.924-1.655-1.386-2.312-1.64A4.262 4.262 0 0 0 8.243 3c-.667-.228-1.386-.228-2.825-.228H4.145a2.968 2.968 0 0 0-2.968 2.969v8.01m3.11 3.476.792-2.826c.645-2.3.967-3.45 1.844-4.116.877-.665 2.072-.665 4.461-.665h5.522c1.16 0 1.741 0 2.036.378.295.379.153.942-.131 2.067l-.055.218c-.6 2.375-.9 3.562-1.787 4.253-.887.691-2.112.691-4.562.691h-8.12Zm0 0a3.12 3.12 0 0 1-3.12-3.12v-.356" stroke="currentColor" stroke-width="1.7" stroke-linecap="round" stroke-linejoin="round" /></symbol>
<symbol fill="none" viewBox="0 0 20 20" id="archive-2-20"><path stroke="currentColor" stroke-linecap="round" stroke-linejoin="round" stroke-width="1.3" d="M17.083 6.667V13.5c0 1.4 0 2.1-.272 2.635a2.5 2.5 0 0 1-1.093 1.092c-.534.273-1.235.273-2.635.273H6.917c-1.4 0-2.1 0-2.635-.273a2.5 2.5 0 0 1-1.093-1.092c-.272-.535-.272-1.235-.272-2.635V6.667m14.166 0v-2.26c0-1.276-.92-1.907-2.106-1.907h-10.3c-.969 0-1.756.877-1.756 1.906 0 .945 0 1.316-.004 2.26m14.166 0H2.917M8 10.143h4" /></symbol>
<symbol fill="none" viewBox="0 0 20 20" id="bold"><path d="M5 10h6.667a3.333 3.333 0 0 0 0-6.667H5V10Zm0 0h7.5a3.333 3.333 0 0 1 0 6.667H5V10Z" stroke="currentColor" stroke-width="1.3" stroke-linecap="round" stroke-linejoin="round" /></symbol>
<symbol fill="none" viewBox="0 0 20 20" id="italic"><path d="M15.833 3.333h-7.5m3.334 13.334h-7.5M12.5 3.333l-5 13.334" stroke="currentColor" stroke-width="1.3" stroke-linecap="round" stroke-linejoin="round" /></symbol>
<symbol fill="none" viewBox="0 0 20 20" id="bullet-list"><path d="M17.5 10h-10 10Zm0-5h-10 10Zm0 10h-10 10ZM4.167 10A.833.833 0 1 1 2.5 10a.833.833 0 0 1 1.667 0Zm0-5A.833.833 0 1 1 2.5 5a.833.833 0 0 1 1.667 0Zm0 10A.833.833 0 1 1 2.5 15a.833.833 0 0 1 1.667 0Z" fill="currentColor" /><path d="M17.5 10h-10m10-5h-10m10 10h-10m-3.333-5A.833.833 0 1 1 2.5 10a.833.833 0 0 1 1.667 0Zm0-5A.833.833 0 1 1 2.5 5a.833.833 0 0 1 1.667 0Zm0 10A.833.833 0 1 1 2.5 15a.833.833 0 0 1 1.667 0Z" stroke="currentColor" stroke-width="1.3" stroke-linecap="round" stroke-linejoin="round" /></symbol>
<symbol fill="none" viewBox="0 0 20 20" id="numbered-list"><path d="M4.414 1.726a.38.38 0 0 1 .167.314v3.223c0 .104.085.19.19.19h.171a.38.38 0 1 1 0 .758H2.898a.38.38 0 1 1 0-.759h.735a.19.19 0 0 0 .19-.19V2.88a.19.19 0 0 0-.26-.176l-.85.34a.38.38 0 0 1-.281-.705l1.629-.651a.38.38 0 0 1 .353.038ZM3.698 8.053c-.425 0-.78.256-.873.514a.38.38 0 1 1-.713-.258c.17-.468.663-.976 1.453-.976.45 0 .86.057 1.16.276.33.242.434.611.434 1.007 0 .431-.217.765-.47 1.024-.236.241-.542.453-.813.641l-.126.086a4.476 4.476 0 0 0-.533.403c-.112.104-.03.271.123.271h1.602a.38.38 0 1 1 0 .759H2.47a.38.38 0 0 1-.38-.38c0-.44.21-.784.465-1.054.249-.263.572-.488.854-.683l.004-.003c.296-.206.55-.382.735-.57.181-.185.253-.34.253-.494 0-.348-.268-.563-.702-.563Z" fill="currentColor" /><path fill-rule="evenodd" clip-rule="evenodd" d="M2.87 14.077c.015-.042.058-.1.182-.154.125-.054.303-.087.513-.087.176 0 .379.056.528.156.142.095.204.205.204.326 0 .237-.052.36-.098.418-.035.043-.1.092-.264.092a.38.38 0 0 0 0 .758c.173 0 .302.004.403.019a.4.4 0 0 1 .164.048c.011.007.09.06.09.428a.728.728 0 0 1-.09.389.559.559 0 0 1-.22.2c-.203.11-.478.143-.717.143-.19 0-.392-.059-.542-.139a.64.64 0 0 1-.139-.095.38.38 0 0 0-.75.08c0 .2.114.352.197.44.094.097.212.179.335.244.246.131.57.228.899.228.28 0 .708-.034 1.078-.235.192-.103.374-.255.506-.472a1.48 1.48 0 0 0 .202-.783c0-.439-.088-.829-.424-1.056l-.013-.01c.103-.209.14-.451.14-.697 0-.44-.249-.762-.54-.956a1.753 1.753 0 0 0-.95-.284c-.278 0-.565.042-.812.149-.249.107-.487.294-.595.592a.38.38 0 0 0 .713.258Z" fill="currentColor" /><path d="M17.5 10h-10 10Zm0-5h-10 10Zm0 10h-10 10Z" fill="currentColor" /><path d="M17.5 10h-10m10-5h-10m10 10h-10" stroke="currentColor" stroke-width="1.3" stroke-linecap="round" stroke-linejoin="round" /></symbol>
<symbol fill="none" viewBox="0 0 20 20" id="link"><path d="M8.333 10.833a4.167 4.167 0 0 0 6.284.45l2.5-2.5a4.167 4.167 0 0 0-5.892-5.891L9.792 4.317m1.875 4.85a4.167 4.167 0 0 0-6.284-.45l-2.5 2.5a4.166 4.166 0 0 0 5.892 5.891l1.425-1.425" stroke="currentColor" stroke-width="1.3" stroke-linecap="round" stroke-linejoin="round" /></symbol>
<symbol fill="none" viewBox="0 0 20 20" id="at"><path d="M13.333 6.667v4.166a2.5 2.5 0 1 0 5 0V10a8.333 8.333 0 1 0-3.266 6.617M13.333 10a3.333 3.333 0 1 1-6.666 0 3.333 3.333 0 0 1 6.666 0Z" stroke="currentColor" stroke-width="1.3" stroke-linecap="round" stroke-linejoin="round" /></symbol>
<mask id="unavailable_a" style="mask-type:luminance" maskUnits="userSpaceOnUse" x="0" y="0" width="11" height="13"><path d="M10.8 0H0v13h10.8V0Z" fill="#fff" /></mask>
<symbol fill="none" viewBox="0 0 11 13" id="unavailable"><g mask="url(#unavailable_a)"><path d="m5.53 1.002.035-1h-.001l-.035 1Zm4.269 5.09-.998-.07-.002.034v.035h1ZM3.224 4.033v1h1v-1h-1ZM5.53 1.946l.053-1h-.004l-.049 1ZM3.208 4.034v-1h-1v1h1Zm6.169.64h-.633v2h.633v-2Zm-.633 0c.357 0 .837.278.837.845h-2c0 .752.643 1.154 1.163 1.154v-2Zm.837.845V4.096h-2v1.423h2Zm0-1.423c0-2.19-1.769-4.013-4.016-4.093L5.493 2c1.195.043 2.088 1.005 2.088 2.095h2ZM5.564.003c-2.32-.08-4.33 1.702-4.33 4.03h2c0-1.105.978-2.076 2.261-2.032L5.564.003Zm-4.33 4.03v1.501h2v-1.5h-2Zm0 1.501c0-.455.363-.845.837-.845v2c.67 0 1.163-.545 1.163-1.155h-2Zm.837-.845h-.633v2h.633v-2Zm-.633 0C.688 4.689 0 5.277 0 6.107h2a.574.574 0 0 1-.562.582v-2ZM0 6.107v5.475h2V6.107H0Zm0 5.475C0 12.412.689 13 1.438 13v-2c.263 0 .562.217.562.582H0ZM1.438 13h7.923v-2H1.438v2Zm7.923 0c.75 0 1.438-.588 1.438-1.418h-2c0-.365.3-.582.562-.582v2Zm1.438-1.418v-5.49h-2v5.49h2Zm-.002-5.421c.063-.898-.689-1.488-1.42-1.488v2a.598.598 0 0 1-.576-.652l1.996.14ZM4.224 4.034c0-.578.518-1.126 1.257-1.09L5.578.947C3.784.859 2.224 2.229 2.224 4.034h2Zm1.253-1.09c.67.035 1.147.57 1.147 1.152h2c0-1.678-1.342-3.06-3.042-3.15l-.105 1.998Zm1.147 1.152v1.438h2V4.096h-2Zm0 1.438c0-.455.363-.845.837-.845v2c.67 0 1.163-.545 1.163-1.155h-2Zm.837-.845h-4.09v2h4.09v-2Zm-4.09 0c.357 0 .837.279.837.845h-2c0 .752.642 1.155 1.162 1.155v-2Zm.837.845v-1.5h-2v1.5h2Zm-1-.5h.016v-2h-.016v2Z" fill="currentColor" /><path fill-rule="evenodd" clip-rule="evenodd" d="M5.53 1.002c1.72.062 3.051 1.454 3.051 3.094v1.423c0 .093.082.154.163.154h.633c.243 0 .438.186.422.418v5.491a.427.427 0 0 1-.438.418H1.438A.427.427 0 0 1 1 11.582V6.107c0-.232.195-.418.438-.418h.633a.159.159 0 0 0 .163-.155v-1.5c0-1.717 1.493-3.094 3.295-3.032Zm0 .944c-1.267-.062-2.306.897-2.306 2.088h-.016v1.5c0 .093.081.155.162.155h4.091a.159.159 0 0 0 .163-.155V4.096c0-1.13-.91-2.089-2.095-2.15Z" fill="red" /></g></symbol>
<use id="mail-usage" href="#mail" xlink:href="#mail" />
<use id="calendar-usage" href="#calendar" xlink:href="#calendar" />
<use id="message-2-usage" href="#message-2" xlink:href="#message-2" />
<use id="feedback-usage" href="#feedback" xlink:href="#feedback" />
<use id="clipboard-usage" href="#clipboard" xlink:href="#clipboard" />
<use id="thumbs-up-usage" href="#thumbs-up" xlink:href="#thumbs-up" />
<use id="clip-usage" href="#clip" xlink:href="#clip" />
<use id="bold-usage" href="#bold" xlink:href="#bold" />
<use id="italic-usage" href="#italic" xlink:href="#italic" />
<use id="bullet-list-usage" href="#bullet-list" xlink:href="#bullet-list" />
<use id="numbered-list-usage" href="#numbered-list" xlink:href="#numbered-list" />
<use id="link-usage" href="#link" xlink:href="#link" />
<use id="at-usage" href="#at" xlink:href="#at" />
<use id="unavailable-usage" href="#unavailable" xlink:href="#unavailable" />
</svg>
